# xmcd
#
# Track frame offsets: 
#        150
#        22580
#        51088
#        65033
#        94071
#        107148
#        130462
#        156071
#        188530
#        218106
#        242601
#        268291
#        285466
#
# Disc length: 4143 seconds
#
# Revision: 0
# Processed by: cddbd v1.4PL0 Copyright (c) Steve Scherf et al.
# Submitted via: ExactAudioCopy v0.90b4
#
DISCID=b4102d0d
DTITLE=Vargas Blues Band - Texas Tango
DYEAR=1995
DGENRE=Blues
TTITLE0=Rose On The Water
TTITLE1=Blues Pilgrimage
TTITLE2=Texas Tango
TTITLE3=Love Ain't Got Nowhere To Go
TTITLE4=Ride Baby Ride
TTITLE5=Black Cat Boogie
TTITLE6=1969
TTITLE7=Ridin' High
TTITLE8=Thunking Of You
TTITLE9=Bluenos Aires Blues
TTITLE10=Big Boss Man
TTITLE11=253
TTITLE12=Blood Shot
EXTD=
EXTT0=
EXTT1=
EXTT2=
EXTT3=
EXTT4=
EXTT5=
EXTT6=
EXTT7=
EXTT8=
EXTT9=
EXTT10=
EXTT11=
EXTT12=
PLAYORDER=
